# xmcd
#
# Track frame offsets:
#	150
#	9812
#	26442
#	42315
#	60100
#	78742
#	92487
#	105892
#	118565
#	130837
#	148267
#	165965
#	183259
#	196365
#	210227
#	225559
#	240630
#	251730
#
# Disc length: 3548 seconds
#
# Revision: 1
# Processed by: cddbd v1.5.2PL0 Copyright (c) Steve Scherf et al.
# Submitted via: audiograbber 1.83.01
#
DISCID=d50dda12
DTITLE=Nashville Showcase - Nashville Showcase 04
DYEAR=1997
DGENRE=
TTITLE0=The Legent And The Legacy - Dick Damron
TTITLE1=Here Comes Truble - Lidsa Dodd
TTITLE2=Rent, Grocories And Gasoline - John Bunzow
TTITLE3=The Hero The County Laid To Rest - Billy Mccoy
TTITLE4=Chevy Blue Eyes - Brent Mcathey
TTITLE5=Anyone Else But You - Drew Webb
TTITLE6=That Woman´s Got My Number - James Goldburn
TTITLE7=Who Says A Woman Can´t Be Strong - Carla Rugg
TTITLE8=Cold Wid - Frontier
TTITLE9=Sombody´s Angel - Erin Hay
TTITLE10=Holdin´ Down This Chair - Jodie Brooks
TTITLE11=Over The Hill - Dough Beal
TTITLE12=Pour A Little Gas On The Fire - Kiana
TTITLE13=What Am I Supose To Do - Eli Doolin
TTITLE14=Long And Restless Nights - Allana Myrol
TTITLE15=Goobye Ireland - Erin Hay
TTITLE16=Dollars - Dick Damron
TTITLE17=The Ride - Hillbilly Frank Owen
EXTD=
EXTT0=
EXTT1=
EXTT2=
EXTT3=
EXTT4=
EXTT5=
EXTT6=
EXTT7=
EXTT8=
EXTT9=
EXTT10=
EXTT11=
EXTT12=
EXTT13=
EXTT14=
EXTT15=
EXTT16=
EXTT17=
PLAYORDER=
